<?xml version="1.0" encoding="UTF-8" standalone="no"?>
<svg
   xmlns:dc="http://purl.org/dc/elements/1.1/"
   xmlns:cc="http://creativecommons.org/ns#"
   xmlns:rdf="http://www.w3.org/1999/02/22-rdf-syntax-ns#"
   xmlns:svg="http://www.w3.org/2000/svg"
   xmlns="http://www.w3.org/2000/svg"
   xmlns:sodipodi="http://sodipodi.sourceforge.net/DTD/sodipodi-0.dtd"
   xmlns:inkscape="http://www.inkscape.org/namespaces/inkscape"
   id="svg2137"
   version="1.1"
   viewBox="0 0 508.00001 304.8"
   height="12in"
   width="20in"
   sodipodi:docname="heart.svg"
   inkscape:version="0.92.2 5c3e80d, 2017-08-06">
  <sodipodi:namedview
     pagecolor="#ffffff"
     bordercolor="#666666"
     borderopacity="1"
     objecttolerance="10"
     gridtolerance="10"
     guidetolerance="10"
     inkscape:pageopacity="0"
     inkscape:pageshadow="2"
     inkscape:window-width="2542"
     inkscape:window-height="1535"
     id="namedview84"
     showgrid="false"
     inkscape:zoom="0.23864854"
     inkscape:cx="-282.886"
     inkscape:cy="322.22856"
     inkscape:window-x="0"
     inkscape:window-y="0"
     inkscape:window-maximized="0"
     inkscape:current-layer="svg2137"
     inkscape:snap-object-midpoints="true"
     inkscape:snap-bbox="true"
     inkscape:bbox-paths="true"
     inkscape:snap-center="true" />
  <defs
     id="defs2131" />
  <metadata
     id="metadata2134">
    <rdf:RDF>
      <cc:Work
         rdf:about="">
        <dc:format>image/svg+xml</dc:format>
        <dc:type
           rdf:resource="http://purl.org/dc/dcmitype/StillImage" />
        <dc:title />
      </cc:Work>
    </rdf:RDF>
  </metadata>
  <path
     id="rect895"
     style="opacity:1;fill:none;fill-opacity:1;fill-rule:nonzero;stroke:#0000ff;stroke-width:1.00012505;stroke-miterlimit:4;stroke-dasharray:none;stroke-opacity:1"
     d="m 62.328186,225.97151 c -0.575855,-0.75707 -1.452796,-1.38856 -2.591573,-2.26239 -1.138777,-0.87383 -4.162028,-3.0242 -5.015714,-5.22863 -0.234133,-0.63193 -0.318167,-1.42057 -0.298172,-2.19418 0.02,-0.7736 0.136784,-1.5172 0.420129,-2.08101 0.793062,-1.57808 2.344878,-2.39403 3.869013,-2.40967 1.36453,-0.014 2.736403,0.62369 3.525882,1.88826 l 0.09245,0.15312 0.08842,-0.15312 c 0.789479,-1.26457 2.161352,-1.90226 3.525882,-1.88826 1.524135,0.0156 3.075951,0.83159 3.869013,2.40967 0.283345,0.56381 0.400129,1.30741 0.420129,2.08101 0.02,0.77361 -0.06404,1.56225 -0.298172,2.19418 -0.853686,2.20443 -3.852437,4.3303 -5.015714,5.22863 -1.163277,0.89833 -2.015718,1.50532 -2.591573,2.26239 z"
     inkscape:connector-curvature="0"
     sodipodi:nodetypes="czccccccccccczc" />
</svg>
