<?xml version="1.0" encoding="UTF-8" standalone="no"?>
<!-- Created with Vectornator for iOS (http://vectornator.io/) -->

<svg
   xmlns:vectornator="http://vectornator.io"
   xmlns:dc="http://purl.org/dc/elements/1.1/"
   xmlns:cc="http://creativecommons.org/ns#"
   xmlns:rdf="http://www.w3.org/1999/02/22-rdf-syntax-ns#"
   xmlns:svg="http://www.w3.org/2000/svg"
   xmlns="http://www.w3.org/2000/svg"
   xmlns:sodipodi="http://sodipodi.sourceforge.net/DTD/sodipodi-0.dtd"
   xmlns:inkscape="http://www.inkscape.org/namespaces/inkscape"
   style="clip-rule:evenodd;fill-rule:evenodd;stroke-linecap:round;stroke-linejoin:round"
   xml:space="preserve"
   version="1.1"
   viewBox="0 0 1920 1152"
   id="svg25"
   sodipodi:docname="heron-wing_clean2.svg"
   inkscape:version="0.92.2 5c3e80d, 2017-08-06"
   width="20in"
   height="12in"><sodipodi:namedview
     pagecolor="#ffffff"
     bordercolor="#666666"
     borderopacity="1"
     objecttolerance="10"
     gridtolerance="10"
     guidetolerance="10"
     inkscape:pageopacity="0"
     inkscape:pageshadow="2"
     inkscape:window-width="1403"
     inkscape:window-height="1080"
     id="namedview27"
     showgrid="true"
     inkscape:zoom="0.62433863"
     inkscape:cx="767.10501"
     inkscape:cy="660.52843"
     inkscape:window-x="849"
     inkscape:window-y="290"
     inkscape:window-maximized="0"
     inkscape:current-layer="g3967"
     units="in"
     inkscape:document-units="in"
     inkscape:snap-global="false" /><metadata
     id="metadata2"><vectornator:setting
       key="RulersVisible"
       value="1" /><vectornator:setting
       key="GridSpacing"
       value="36" /><vectornator:setting
       key="Units"
       value="Pixels" /><vectornator:setting
       key="DynamicGuides"
       value="0" /><vectornator:setting
       key="SnapToPoints"
       value="0" /><vectornator:setting
       key="CMYKEnabledKey"
       value="0" /><vectornator:setting
       key="SnapToGrid"
       value="0" /><vectornator:setting
       key="SnapToGuides"
       value="1" /><vectornator:setting
       key="ShowGrid"
       value="1" /><vectornator:setting
       key="SnapToEdges"
       value="0" /><rdf:RDF><cc:Work
         rdf:about=""><dc:format>image/svg+xml</dc:format><dc:type
           rdf:resource="http://purl.org/dc/dcmitype/StillImage" /><dc:title /></cc:Work></rdf:RDF></metadata><defs
     id="defs5" /><g
     inkscape:label="trace copy"
     id="g3967"
     inkscape:groupmode="layer"
     transform="translate(0,-1872)"
     style="display:inline"><path
       style="clip-rule:evenodd;opacity:1;fill:none;fill-rule:evenodd;stroke:#000000;stroke-width:4.99999952;stroke-linecap:round;stroke-linejoin:round"
       d="m 93.148796,2408.2609 c 0.26974,-1.3545 2.25991,-2.6974 3.09313,-3.8082 0.50754,-0.6773 1.42868,-1.4271 2.13604,-1.8514 2.773854,-1.6332 5.090114,-2.4288 7.690894,-3.4178 4.1263,-2.0955 8.79293,-3.9965 12.67428,-5.5538 2.28884,-0.6472 4.26212,-0.5851 6.26621,-1.2816 1.24686,-0.4163 2.55365,-0.5967 3.84445,-0.8544 0.83323,-0.1667 1.58853,-0.7158 2.41977,-0.8547 2.14202,-0.3569 4.29602,-0.9629 6.41008,-1.5663 1.8243,-0.5219 3.6706,-1.4399 5.55287,-1.7091 1.52258,-0.2174 3.02719,-0.8054 4.55779,-0.9966 6.87963,-0.86 13.55147,-2.9366 20.22131,-4.8419 1.26083,-0.3603 2.57961,-0.3324 3.84444,-0.712 2.14401,-0.6431 4.336,-1.6246 6.55195,-1.9938 3.27098,-0.545 6.61189,-1.0757 9.82491,-1.9937 1.37074,-0.3916 2.63557,-1.1804 3.98832,-1.5665 1.87427,-0.5353 3.86243,-0.7366 5.69474,-1.4239 3.04919,-1.1433 6.18229,-1.9651 9.25745,-2.9907 2.59161,-0.8635 5.24915,-1.653 7.97464,-1.9937 2.81539,-0.3519 5.68473,-0.2848 8.54409,-0.2848 1.20089,0 2.51368,0.1487 3.70258,0 5.66876,-0.7085 11.39746,-0.9341 17.09022,-1.5666 3.10712,-0.3452 6.2742,0.028 9.39731,-0.2846 7.31124,-0.7312 14.51858,-1.5122 21.78985,-2.421 1.96619,-0.2461 4.00632,0.104 5.98049,-0.1425 1.52659,-0.1906 3.0292,-0.6633 4.55579,-0.8545 1.96418,-0.2453 4.01628,0.2188 5.98246,0 1.7364,-0.1928 3.39686,-0.7804 5.12527,-0.9968 1.4087,-0.1759 2.87534,-0.052 4.27406,-0.2846 0.58944,-0.099 1.23086,-0.3585 1.85027,-0.4273 6.35214,-0.7057 12.80218,-0.7815 19.08237,-1.5665 0.25377,-0.031 0.45959,-0.2487 0.71335,-0.2847 0.7613,-0.1087 1.5186,-0.1586 2.27789,-0.285 1.24685,-0.2078 2.60559,0.012 3.84446,-0.1423 0.75529,-0.094 1.84854,-0.1039 2.63669,-0.1824 0.81413,0.033 1.60539,-0.2156 2.40865,-0.3103 0.71134,-0.083 2.59037,0.141 3.29571,0 2.32187,-0.4646 4.69367,-0.5231 7.04151,-0.8586 1.48262,-0.2118 2.07931,0 3.57592,0 h 8.75992 12.70825 c 1.91423,0 4.30402,-0.3762 6.18428,0 2.52367,0.5049 5.68476,0.2843 8.24438,0 2.2759,-0.253 4.60175,-0.06 6.86965,-0.3436 1.23887,-0.1548 2.54366,0.1766 3.77852,0 3.97432,-0.5677 8.03657,-0.1887 12.02288,-0.6871 8.43621,-1.0545 16.95634,-1.0428 25.41852,-1.8892 2.54964,-0.255 5.18321,0.2829 7.72886,0 7.12941,-0.7923 14.8263,-0.9672 21.98568,-0.1717 2.40978,0.2678 4.99338,-0.3984 7.38518,0 1.18889,0.1983 2.40178,0.3431 3.60667,0.5151 0.84122,0.1203 1.7304,-0.093 2.57561,0 1.60052,0.1778 3.19504,0.3435 4.80955,0.3435 0.80527,0 1.79036,-0.1569 2.57562,0 2.47372,0.4948 5.04935,0.5007 7.55703,0.8589 1.15294,0.1646 2.43774,0 3.60667,0 h 7.04148 c 0.81925,0 1.77037,-0.1345 2.57763,0 3.64063,0.6068 7.40915,0.5153 11.16367,0.5153 1.49463,0 3.16109,-0.2108 4.63773,0 2.7934,0.399 5.7367,0.3434 8.58605,0.3434 1.09298,0 2.34983,-0.155 3.43683,0 1.99416,0.2849 3.98231,0.4616 6.01045,0.687 1.71641,0.1908 3.63064,-0.3386 5.32508,0 1.68444,0.337 3.43682,0.3009 5.15123,0.5154 0.90117,0.112 1.8503,-0.1283 2.74947,0 2.42375,0.3463 4.91945,0.5153 7.38518,0.5153 1.54456,0 3.27696,-0.2188 4.80755,0 2.20995,0.3155 4.46986,0.4391 6.69981,0.6869 1.72641,0.1918 3.62464,-0.3399 5.32308,0 1.85828,0.3715 3.77252,0.416 5.66876,0.687 1.7284,0.2468 3.63065,-0.2516 5.32508,0.1718 0.95512,0.239 1.92022,0.5206 2.9193,0.6869 2.50569,0.4179 5.22517,-0.2455 7.72886,0.1717 1.48463,0.2474 2.95926,0.6707 4.46587,0.8589 1.48663,0.1859 2.99524,0.05 4.46388,0.3433 1.74439,0.349 3.77251,-0.2593 5.49692,0.172 4.7576,1.1892 10.12065,1.2023 15.11403,1.2023 6.41807,0 12.79818,0.1717 19.23623,0.1717 4.79908,0.099 6.63389,-0.7933 10.90466,-0.8071 1.23286,0 2.76071,-0.024 3.97159,-0.2262 1.46365,-0.244 3.33292,-0.4087 4.82095,-0.1607 2.32265,0.3869 4.85611,0.1607 7.23231,0.1607 3.01502,0 6.10596,0.1608 9.16094,0.1608 3.23021,0 6.54115,-0.1608 9.80374,-0.1608 1.07361,0 2.31886,-0.1761 3.37508,0 1.52939,0.255 3.12451,-0.059 4.66069,0.1608 4.8777,0.6967 9.93942,0.1564 14.78614,0.9643 0.93753,0.1563 1.9492,-0.1181 2.89293,0 2.00634,0.2508 4.12239,-0.011 6.10716,0.3212 4.47725,0.7465 8.91835,0.8038 13.50032,0.8038 3.77951,0 7.52205,-0.017 11.2502,-0.4822 2.91411,-0.3643 5.92513,0.043 8.83943,-0.3216 7.32684,-0.9156 14.70162,-1.3654 22.01826,-2.4106 2.17879,-0.3111 4.25687,-1.2969 6.42866,-1.6072 1.10658,-0.1581 2.28509,-0.2096 3.37509,-0.4821 1.04843,-0.2623 2.14621,-0.67 3.21442,-0.8037 3.29955,-0.4124 6.68743,-0.9517 9.9644,-1.6071 1.16772,-0.2336 2.34544,-0.6334 3.53593,-0.8037 4.16356,-0.5947 8.12408,-1.7094 12.21452,-2.7321 2.1616,-0.5404 4.35418,-0.99 6.42866,-1.7679 1.02944,-0.3861 2.04809,-0.8834 3.05357,-1.2857 1.1977,-0.4791 2.64856,-0.6069 3.85724,-1.1251 2.19517,-0.9407 4.41092,-1.9592 6.58951,-2.893 0.44539,-0.1907 0.85161,-0.5864 1.2856,-0.8034 1.25905,-0.6294 2.59081,-1.1347 3.85728,-1.768 0.31357,-0.1568 1.60718,-0.9822 1.60718,-0.3215 0,0.4667 -0.70299,1.0983 -0.96431,1.4465 -1.07223,1.4297 -2.42498,3.2286 -3.69648,4.5002 -3.46581,3.4657 -7.34901,6.6825 -11.57171,9.3216 -2.37061,1.4818 -5.00518,2.4246 -7.39297,3.8573 -2.8032,1.6818 -5.78406,3.1935 -8.83943,4.3394 -1.04383,0.3914 -2.00075,1.0954 -3.05358,1.4464 -2.63077,0.8768 -5.39242,1.7294 -7.87532,3.0536 -1.28842,0.6872 -2.15561,1.8094 -3.37488,2.5714 -2.77844,1.7365 -5.68495,3.2171 -8.67879,4.5001 -2.29387,0.9831 -4.15236,2.8818 -6.42866,3.8573 -13.66517,5.8566 -25.81011,9.7798 -40.43121,12.2164 1.76038,0.4404 4.73041,1.0282 6.51974,1.2838 1.15954,0.1656 2.27591,0.6503 3.37509,0.9644 1.28062,0.3658 2.7125,0.4251 4.01789,0.6428 0.92555,0.1542 1.80893,0.5109 2.73227,0.643 2.61399,0.3733 5.26174,0.4302 7.87513,0.8035 3.11472,0.4448 6.18948,0.8942 9.32159,1.2858 2.01113,0.2513 4.0964,-0.091 6.10735,0.1606 1.92662,0.2407 4.16016,0.377 6.10716,0.1607 3.09034,-0.3434 6.23643,-0.2572 9.32158,-0.6428 5.44518,-0.6806 10.81581,-1.7337 16.23261,-2.4108 4.70124,-0.5877 9.25784,-2.1409 13.82162,-3.0536 1.1901,-0.238 2.21476,-0.9957 3.37509,-1.2858 0.12428,-0.031 0.8668,-0.2582 0.9643,-0.1607 0.24278,0.243 -0.7559,1.2379 -0.9643,1.4465 -1.27343,1.2734 -2.21495,2.8326 -3.69659,4.0179 -1.72521,1.3803 -3.52954,2.5909 -5.46435,3.6966 -1.13796,0.6501 -2.11064,1.5877 -3.21444,2.2498 -0.83921,0.5036 -1.91701,0.7424 -2.73206,1.2858 -0.99289,0.6619 -2.04432,1.2557 -3.05359,1.9287 -1.54936,1.0329 -2.82019,2.3745 -4.50023,3.2144 -3.25259,1.6263 -6.51239,3.4972 -9.80375,5.1428 -1.63728,0.8187 -3.73195,1.1742 -5.46435,1.6071 -1.43108,0.3579 -3.12331,0.8961 -4.50004,1.4465 -0.66479,0.266 -1.37493,0.6847 -2.08947,0.8037 -2.24312,0.3739 -4.50224,1.2059 -6.74997,1.7679 -3.10552,0.7764 -6.07518,2.1721 -9.16092,3.0536 -4.90347,1.401 -10.00396,2.4374 -14.94679,3.5358 -3.1469,0.6993 -6.31897,1.4768 -9.48225,1.9286 -1.36993,0.1959 -2.66473,0.8996 -4.01808,1.125 -3.45262,0.5754 -7.04829,1.0792 -10.44655,1.9286 -1.02745,0.2569 -2.00535,0.654 -3.05358,0.8037 -3.73794,0.5338 -7.52544,1.0749 -11.2502,1.6071 -4.5482,0.6497 -9.19191,0.8036 -13.82183,0.8036 -2.27064,0.306 -4.84711,-0.1109 -6.60606,-0.1193 2.55975,1.2805 5.4823,1.9105 8.21337,2.6908 0.52152,0.149 0.96152,0.4351 1.44647,0.643 1.48423,0.636 3.27337,1.1023 4.82134,1.4465 1.56056,0.3465 2.96466,1.1682 4.50024,1.607 2.77784,0.7937 5.57945,1.4562 8.35728,2.2499 2.09346,0.5983 3.82886,1.5722 5.78585,2.4108 2.40179,1.0295 5.16663,1.684 7.71447,2.2501 2.48071,0.5512 5.06613,0.9305 7.55363,1.2859 1.39071,0.1986 2.79542,0.091 4.17874,0.3213 0.88658,0.1478 1.84169,-0.1271 2.73207,0 1.9482,0.2783 3.96674,0.1608 5.94651,0.1608 3.38687,0 6.79472,-0.011 10.12525,-0.4821 3.41304,-0.4876 6.67083,-1.1052 9.96459,-1.9287 1.076,-0.2692 2.12523,-0.7465 3.21423,-0.9643 0.0997,-0.02 1.76796,-0.6556 1.76796,-0.4821 0,0.4098 -1.49701,0.9895 -1.76796,1.1249 -1.49023,0.7451 -2.80801,1.5152 -4.3394,2.0893 -1.15113,0.4318 -2.09086,1.2687 -3.21423,1.768 -1.27422,0.5663 -2.811,0.843 -4.01788,1.4465 -3.80788,1.9037 -8.11031,3.2927 -12.21472,4.6609 -2.78282,0.9274 -5.64098,1.6096 -8.51793,2.0892 -1.77236,0.2953 -3.56111,1.0107 -5.3037,1.4465 -3.21762,0.8045 -6.64166,1.3744 -9.96439,1.9279 -1.61051,0.2698 -3.21023,0.7633 -4.82155,0.9652 -3.19484,0.3996 -6.46641,0.8072 -9.64308,1.125 -2.93509,0.2937 -5.90455,0.2756 -8.83944,0.6433 -4.14317,0.5175 -8.24198,1.251 -12.37536,1.7664 -2.51268,0.3157 -5.04953,0.3297 -7.55362,0.6435 -1.60652,0.2018 -3.22082,0.9251 -4.82154,1.1248 -5.87198,0.7353 -11.481,2.9613 -17.35757,3.6966 -0.72474,0.091 -1.32944,0.1737 -2.07356,0.278 1.62124,0.6646 3.13665,1.2557 4.80584,1.8122 2.31706,0.7712 4.86011,1.0509 7.23232,1.4467 0.80705,0.1337 1.59193,0.5054 2.41077,0.6413 2.91451,0.4856 5.90334,0.7592 8.83943,1.1249 2.20436,0.2758 4.37756,1.0651 6.58951,1.2868 2.48371,0.2478 4.91466,0.8773 7.39297,1.125 2.34044,0.2338 4.72423,0.3497 7.07147,0.6435 0.43839,0.054 0.84581,0.2797 1.28581,0.3197 2.10705,0.1918 4.14197,0.5914 6.26801,0.8052 3.32532,0.3317 6.66623,0.5515 9.96439,0.9631 0.84402,0.1063 1.7276,-0.1063 2.57143,0 3.64123,0.4556 7.39096,0.3216 11.08954,0.3216 1.29721,0 2.57463,-0.1618 3.85724,-0.3216 1.91703,-0.2398 3.86403,-0.1618 5.78585,-0.4816 1.64352,0.038 3.7812,-0.8469 4.9822,-0.9651 -1.21553,0.4884 -2.42691,1.22 -3.69638,1.7683 -1.52139,1.1411 -3.28377,2.0841 -4.9824,3.0533 -1.61771,0.9251 -3.59768,1.1709 -5.3037,1.9302 -3.04659,1.3528 -5.86658,2.9733 -8.67858,4.6597 -0.29053,0.1739 -0.6498,0.1959 -0.96431,0.3216 -0.49534,0.1979 -0.8578,0.5476 -1.28581,0.8034 -0.78768,0.4736 -1.75138,0.7154 -2.57143,1.1249 -1.12372,0.72 -1.78065,1.0902 -2.66542,1.6217 -1.48224,0.8893 -3.06388,1.995 -4.63862,2.6244 -1.03884,0.4156 -1.86109,1.2468 -2.85617,1.7444 -1.63029,0.8153 -3.34151,1.4706 -5.0773,1.9042 -0.98909,0.2478 -2.04032,0.7853 -3.01482,1.111 -2.42835,0.8093 -4.87669,1.5286 -7.29885,2.222 -4.02429,1.1489 -8.27276,1.3787 -12.37617,2.062 -1.02085,0.1698 -1.99036,0.6475 -3.01481,0.7934 -3.12531,0.4475 -6.11935,0.915 -9.2029,1.4286 -0.98289,0.1638 -2.47828,0.07 -3.45618,0.231 1.8908,0.2997 3.44829,0.4815 5.36022,0.72 0.90956,0.1144 1.80134,0.5077 2.69751,0.6356 2.90951,0.4155 5.83181,0.7493 8.72674,1.1109 1.31098,0.1639 2.66353,0.1006 3.96673,0.3177 1.53678,0.2557 3.05798,0.6933 4.60155,0.9511 0.78088,0.13 1.48443,0.5476 2.22135,0.7933 2.29068,0.7633 4.49065,1.7144 6.82269,2.3798 2.82639,0.8072 5.87557,0.9531 8.72694,1.4287 1.35475,0.2258 2.77044,0.091 4.12539,0.3178 1.43766,0.2397 2.74586,0.7652 4.12538,1.1109 2.31427,0.5774 4.5522,0.9871 6.82289,1.7443 1.10099,0.3677 2.37741,0.7294 3.49078,0.9511 0.23839,0.049 1.16812,0.3477 0.95192,0.6355 -0.52332,0.6973 -2.27949,0.9552 -3.01461,1.2688 -3.0284,1.2988 -5.91113,2.7594 -9.2029,3.4909 -3.32393,0.7392 -6.76195,1.2986 -9.99616,2.2219 -2.01634,0.5754 -4.28384,0.5634 -6.34694,0.7931 -3.2422,0.3598 -6.44684,0.8653 -9.67885,1.269 -1.93541,0.2417 -3.92857,-0.033 -5.87078,0.1598 -6.91361,0.6914 -13.77647,1.8723 -20.62714,3.0152 -1.95199,0.3237 -3.75133,1.2589 -5.71212,1.5865 -1.725,0.2878 -3.52634,0.4516 -5.23616,0.7933 -0.89497,0.1778 -1.80034,0.6135 -2.69751,0.7932 -4.28803,0.8573 -8.51613,1.8984 -12.85212,2.3798 -2.46173,0.2739 -5.33907,0.1459 -7.77482,-0.1597 -0.93513,-0.116 -1.92222,0.1337 -2.85536,0 -2.57762,-0.3678 -5.21918,-0.3658 -7.77481,-0.7934 -1.81433,-0.3018 -3.73855,-0.013 -5.55487,-0.3157 -1.83231,-0.3057 -3.71657,-0.2138 -5.55287,-0.4776 -2.68952,-0.3835 -5.39102,-0.7232 -8.09252,-1.1109 -4.81155,-0.6874 -9.4153,-2.7894 -14.12095,-3.9664 -4.17015,-1.0411 -8.49615,-0.8871 -12.69427,-1.5864 -1.44067,-0.2398 -2.99324,0.1818 -4.4419,0 -1.45665,-0.1819 -2.78943,-0.3177 -4.28404,-0.3177 -0.80126,0 -1.76037,0.1558 -2.53965,0 -1.81433,-0.3617 -3.84445,-0.158 -5.71072,-0.158 h -3.92125 c 1.05703,0.4237 3.3178,1.279 4.39681,1.5866 1.74238,0.4975 3.16707,1.9003 4.7596,2.6975 1.20689,0.6035 2.55764,1.2088 3.80848,1.7444 2.30787,0.9912 4.93145,1.155 7.29925,1.7464 2.11805,0.5295 4.06624,1.8322 6.18828,2.5396 2.47572,0.8253 5.10329,1.185 7.61497,1.9023 2.34982,0.6713 4.64171,1.6365 6.98155,2.2219 2.41976,0.6054 4.67168,1.7684 6.98154,2.5397 1.43668,0.4776 2.98924,0.8452 4.4419,1.4266 0.90117,0.3618 1.82631,0.8933 2.53965,1.4287 0.0879,0.066 0.95112,0.3917 0.95112,0.4757 0,0.4596 -1.25084,0.943 -1.58653,1.1109 -1.90624,0.9531 -3.79849,1.9003 -5.71072,2.8553 -0.72733,0.3636 -1.34476,0.9111 -2.0641,1.2709 -0.58945,0.2957 -1.2928,0.4056 -1.90424,0.6334 -1.32477,0.4975 -2.59959,1.1968 -3.96633,1.5865 -3.63065,1.0391 -7.37319,1.5964 -11.10574,2.0641 -2.24393,0.2798 -4.71564,0 -6.98154,0 -6.26223,0 -12.58638,1.2628 -18.88256,0.6335 -4.72763,-0.4716 -9.46325,-0.8093 -14.12095,-1.5866 -1.13495,-0.1878 -2.35182,0 -3.49077,-0.1579 -3.10314,-0.4436 -6.26223,-0.6673 -9.36135,-1.111 -2.0641,-0.2937 -4.14218,-0.8152 -6.18828,-1.2688 -0.80527,-0.1797 -1.57856,-0.1178 -2.37981,-0.3177 -2.84137,-0.7093 -5.66876,-1.5805 -8.56808,-2.0621 -3.20103,-0.5334 -6.486,-0.7892 -9.67905,-1.4286 -0.95712,-0.1919 -2.07608,-0.082 -3.01522,-0.3177 -2.5936,-0.6475 -5.32507,-0.9991 -7.93267,-1.7445 -2.60758,-0.7452 -5.20319,-1.7383 -7.77682,-2.3798 -2.93176,-0.3918 -5.65768,-1.5824 -8.19545,-2.1284 1.16532,1.1067 1.28785,0.7678 2.38882,1.8687 1.73639,1.7363 3.13312,3.7245 4.69567,5.5989 1.33876,1.6065 3.23701,2.6954 4.69566,4.1541 2.04011,2.0401 4.03827,4.1362 6.50199,5.7786 2.19398,1.4627 3.73455,3.0612 5.77866,4.6957 1.13894,0.9111 2.60759,1.4586 3.7925,2.3478 2.66154,1.9961 5.47293,3.7305 8.48815,5.2372 1.38273,0.6914 2.64955,1.6864 3.97433,2.3477 0.25976,0.132 0.82323,0.05 1.083,0.1819 0.65139,0.3257 1.27881,0.9812 1.98616,1.263 0.23178,0.093 0.50953,0.054 0.72333,0.1817 0.40763,0.2439 2.8174,1.5526 2.168,1.9862 -0.20581,0.1359 -0.83124,0.1178 -1.085,0.1798 -0.38166,0.097 -0.70136,0.4476 -1.083,0.5435 -1.64848,0.4116 -3.3589,0.6574 -5.05733,1.083 -2.32385,0.5814 -4.63771,0.8432 -7.04349,1.083 -0.97709,0.099 -1.91622,0.4036 -2.88933,0.5415 -1.43266,0.2058 -3.06316,0 -4.51582,0 -2.86336,0 -5.67276,-0.011 -8.48815,-0.3597 -1.25885,-0.1578 -2.53566,-0.024 -3.79249,-0.1818 -5.03736,-0.6294 -9.98479,-1.3327 -14.99016,-2.166 -1.97618,-0.3297 -4.00429,-0.3316 -5.9605,-0.7233 -2.73347,-0.5475 -5.35504,-1.8863 -8.12648,-2.3478 -4.33999,-0.7234 -8.65001,-1.4408 -13.00399,-2.168 -2.6036,-0.4337 -5.21717,-1.2948 -7.76682,-1.8044 -1.60452,-0.3217 -3.11712,-1.1748 -4.69566,-1.6265 -3.27897,-0.9371 -6.64586,-1.7064 -9.93282,-2.5277 -0.80326,-0.2018 -1.54458,-0.6353 -2.34783,-0.903 -1.02306,-0.3418 -2.08008,-0.5076 -3.07117,-0.9033 -0.35767,-0.1439 -0.71134,-0.4495 -1.08299,-0.5415 -1.36075,-0.3396 -2.64955,-1.097 -3.97433,-1.6265 -1.45265,-0.5815 -2.90132,-0.8711 -4.33399,-1.4447 -2.55763,-1.023 -4.94345,-2.2279 -7.585,-2.8893 -0.69935,-0.1758 -1.90624,-0.5914 -2.52966,-0.9031 -2.15514,-1.0857 -4.98607,-1.8357 -7.12342,-2.5377 0.61145,0.8173 1.53458,1.4047 2.18998,2.1921 1.77236,2.126 3.45081,4.292 5.39301,6.2341 1.06502,1.0651 2.37381,2.0642 3.53874,3.0332 1.57255,1.3108 2.89332,3.0291 4.54979,4.2142 0.76529,0.5454 1.69043,1.0151 2.35982,1.6844 2.3758,2.3758 5.13325,4.308 7.75283,6.404 1.89825,1.5187 3.54872,3.2451 5.39102,4.7197 1.46066,1.167 2.89534,2.4218 4.38195,3.5387 0.6654,0.4976 1.86829,1.027 2.35982,1.6845 0.6554,0.8752 0.4316,1.3806 -0.33768,2.0222 -1.1989,1.001 -3.5747,0.7652 -5.05533,1.0109 -2.9293,0.4896 -5.80864,0.1599 -8.76191,-0.1677 -1.55455,-0.1719 -3.16508,0.1718 -4.71964,0 -0.92514,-0.104 -1.92022,-0.3258 -2.86535,-0.1679 -1.58853,0.2638 -2.98924,1.4246 -4.54979,1.6843 -2.75945,0.4596 -6.11835,0.6895 -8.93174,0.3377 -3.60268,-0.4515 -7.24932,-1.0589 -10.78605,-2.022 -2.92928,-0.7993 -5.72669,-1.9102 -8.59406,-2.8654 -2.57161,-0.8572 -5.37702,-0.8991 -7.92067,-1.8543 -1.26883,-0.4754 -2.60759,-0.7033 -3.87642,-1.1789 -2.96725,-1.113 -6.14506,-1.8936 -8.99602,-3.3059 2.06345,2.9123 4.00711,5.5705 5.79498,8.699 0.72332,1.2667 1.80234,2.2679 2.52766,3.5387 0.89318,1.5606 1.55856,3.2969 2.69551,4.7177 0.8732,1.0909 1.82431,2.112 2.69751,3.2029 0.76329,0.9552 1.81032,1.7664 2.35782,2.8634 0.11391,0.2257 0.47757,0.4656 0.33769,0.6754 -0.48555,0.7274 -4.39994,-0.4556 -5.05533,-0.6754 -1.99615,-0.6654 -3.85243,-1.8462 -5.89855,-2.3578 -3.00922,-0.7533 -6.03643,-1.9902 -9.09959,-2.8653 -0.63141,-0.1799 -1.24086,-0.4996 -1.85429,-0.6734 -0.53951,-0.1538 -1.12695,-0.1143 -1.68445,-0.3377 -0.90715,-0.3617 -1.76835,-0.8712 -2.6975,-1.179 -3.88841,-1.2967 -7.92866,-2.2919 -11.62726,-3.8763 -1.16891,-0.5016 -2.55963,-0.5196 -3.70857,-1.0112 -2.78144,-1.1928 -5.69674,-2.2359 -8.59405,-3.2029 -1.71842,-0.5716 -3.49678,-1.0851 -5.22519,-1.5167 -2.3558,-0.5894 -4.5358,-1.9202 -6.73977,-2.8653 -1.41668,-0.6055 -3.08115,-1.155 -4.38194,-2.0222 -2.10805,-1.4046 -4.19413,-3.0191 -6.23624,-4.5498 -4.72567,-3.3749 -8.29489,-8.0162 -13.10389,-10.9798 -0.90059,-0.6672 -1.60108,-0.948 -2.67044,-1.4031 1.06319,1.7688 2.04102,3.3433 2.84228,5.2136 0.6414,1.4927 1.88826,2.7375 2.59761,4.1561 0.82722,1.6545 1.49062,3.3869 2.42575,5.0234 1.38472,2.4238 3.08316,4.6077 4.33,7.0994 0.44559,0.8912 1.16693,1.6845 1.55856,2.5997 0.70135,1.6384 1.15493,3.5606 2.24992,5.0213 1.53258,2.0422 2.84737,4.1121 3.4648,6.582 0.17783,0.7132 0.79127,1.3447 1.21288,1.9042 0.70335,0.9391 0.98309,2.1819 1.73039,3.1171 0.0899,0.112 0.81326,1.1888 0.51954,1.3847 -0.2378,0.1598 -1.43468,0 -1.73041,0 -1.29281,0 -2.65156,-0.1718 -3.98431,-0.1718 -2.51169,0 -5.05733,0.1718 -7.61898,0.1718 -0.78526,0 -1.58452,0.3417 -2.42575,0.1738 -2.18598,-0.4376 -4.35997,-1.0691 -6.57992,-1.3847 -1.68445,-0.2417 -3.3429,-0.7992 -5.02336,-1.039 -1.31079,-0.1878 -2.70351,-0.3277 -3.98232,-0.6934 -0.69136,-0.1978 -1.34475,-0.5695 -2.07807,-0.6934 -7.33723,-1.2228 -14.74637,-3.209 -21.99569,-5.0213 -3.92836,-0.9831 -7.80877,-2.11 -11.77511,-2.7715 -0.99508,-0.1658 -1.96819,-0.6714 -2.94528,-0.8651 -2.44573,-0.4896 -7.01415,-0.7244 -9.43193,-1.3278 0.92714,1.4845 2.50633,3.8715 3.19769,5.484 1.57854,3.6845 2.40178,7.5649 3.98232,11.2575 1.06501,2.4838 2.19597,5.8107 3.81048,7.9647 0.1079,0.1438 2.30587,2.8654 2.25192,2.9453 -0.3257,0.4875 -1.05503,-0.041 -1.38473,-0.1738 -1.073,-0.4277 -2.22793,-0.6834 -3.29095,-1.0391 -2.76945,-0.9231 -5.60482,-1.7705 -8.48616,-2.252 -1.36274,-0.2257 -2.78742,0.024 -4.15616,-0.1718 -0.8652,-0.124 -1.73439,-0.3757 -2.5976,-0.5195 -0.73932,-0.1239 -1.5126,-0.05 -2.25191,-0.1738 -2.24793,-0.3738 -4.40794,-1.6306 -6.58193,-2.252 -2.2719,-0.6493 -4.55378,-1.3707 -6.75375,-2.2499 -0.85922,-0.3457 -2.02813,-0.5415 -2.94329,-0.6933 -2.53565,-0.4216 -4.90946,-1.8283 -7.4471,-2.252 -3.1451,-0.5235 -6.49001,-1.2967 -9.52521,-2.5976 -2.14202,-0.9171 -4.01031,-2.4376 -6.06239,-3.4627 -2.10033,-1.0502 -3.28764,-1.9122 -5.10108,-3.2525 0.79638,1.1799 0.59923,0.8846 1.46443,2.0396 1.23885,1.6503 2.08407,3.6446 3.11712,5.369 1.71842,2.8634 2.62921,6.7689 2.94528,10.0447 0.35582,3.6875 -0.10386,2.5776 -3.63663,2.5977 h -10.91193 c -3.5747,0 -7.0335,0.2677 -10.56424,-0.1739 -2.07463,-0.6108 -3.9107,-1.1484 -5.71472,-1.7324 -5.48443,-1.9754 -9.12692,-5.094 -13.33567,-7.9647 -1.72841,-1.1529 -4.46894,-2.8601 -6.19534,-4.0111 0.70135,1.6346 0.83229,1.8831 1.51966,3.4916 0.67937,1.5845 0.61342,3.4268 1.21287,5.0214 0.73972,3.0497 2.2235,5.5502 3.29097,8.1403 0.5435,1.3589 0.98708,2.7277 1.55855,4.1562 0.18584,0.4657 1.21689,1.7305 0.51952,1.9044 -1.60204,-0.076 -4.32668,0.076 -5.71471,-0.1739 -2.02613,-0.4036 -4.25433,-0.9089 -6.30244,-1.3184 -5.02146,-0.7156 -9.80563,-2.0979 -14.48036,-3.0097 -1.98216,-0.3316 -3.95235,-0.7292 -5.88855,-1.2127 -5.0612,-1.0222 -7.93102,-2.5971 -11.77712,-3.6367 -2.863354,-0.7174 -4.857514,-2.262 -6.927614,-4.33 -1.53657,-2.96 -1.3806,-6.7449 -1.90423,-10.3904 0.36766,-38.5034 0.36766,-34.9117 0.32825,-80.4696 0.0394,-3.838 0.0688,-122.4266 0.0394,-127.0827 z"
       id="path928"
       inkscape:connector-curvature="0"
       sodipodi:nodetypes="cccccccccccccccccccsccccccccccccccccccscsccccccsccccsccsscscscccccsccccccccccsccccssscccccscccccccccccccccscccccccccccccccccccccccccccccccccccccccccccccccccccccccscccscccccccccccccccccccccccccccscccccccccccccccccccccccccccccccccccccccccccccccccccccscscccccscccccsccccccscccccccccccccccccccccccccccccscccccccccccccccccccccccccccccccccccccccccccccccccccccccccccccccccccccsssccccccccccccccccccccccccccccccscccccccccccccccccc" /></g></svg>